<svg width="400" height="400" viewBox="0 0 400 400" fill="none" xmlns="http://www.w3.org/2000/svg">
<path d="M200 248.71C237.136 248.71 267.24 218.606 267.24 181.47C267.24 144.334 237.136 114.23 200 114.23C162.864 114.23 132.76 144.334 132.76 181.47C132.76 218.606 162.864 248.71 200 248.71Z" stroke="#6A0BFF" stroke-width="12" stroke-miterlimit="10" stroke-linecap="round" stroke-linejoin="round"/>
<path d="M200 202.72C211.736 202.72 221.25 193.206 221.25 181.47C221.25 169.734 211.736 160.22 200 160.22C188.264 160.22 178.75 169.734 178.75 181.47C178.75 193.206 188.264 202.72 200 202.72Z" stroke="#6A0BFF" stroke-width="12" stroke-miterlimit="10" stroke-linecap="round" stroke-linejoin="round"/>
<path d="M359.5 200C359.5 200 288.09 275.78 200 275.78C111.91 275.78 40.5 200 40.5 200C40.5 200 111.91 114.23 200 114.23C288.09 114.23 359.5 200 359.5 200Z" stroke="#191919" stroke-width="12" stroke-miterlimit="10" stroke-linecap="round" stroke-linejoin="round"/>
</svg>
